M48
METRIC,TZ
T01C0.4060
T02C0.7620
T03C1.0160
T04C0.6350
T05C1.4000
%
T01
X-7826Y+22674
X-11714Y+23878
X-35497Y+25632
X-43000Y+28500
X-43000Y+24000
X-10500Y+41000
X-12644Y+41082
T02
X-54872Y+37759
X-57412Y+37759
X-41180Y+33520
X-41180Y+30980
T03
X-47800Y+38100
X-47800Y+36398
X-47800Y+34696
X-47800Y+32995
X-47800Y+31293
X-52610Y+24265
X-52610Y+35060
X-35418Y+15442
X-45561Y+19134
X-11000Y+21540
X-11000Y+19000
X-11000Y+16460
T04
X-14890Y+48490
X-16160Y+48490
X-17430Y+48490
X-18700Y+48490
X-19970Y+48490
T05
X-55080Y+45500
X-50000Y+45500
X-50000Y+17000
X-55080Y+17000
M30
