G04 PROTEUS RS274X GERBER FILE*
%FSLAX45Y45*%
%MOMM*%
G01*
%ADD10C,0.177800*%
%ADD11C,0.635000*%
%ADD12C,0.508000*%
%ADD13C,1.016000*%
%ADD14C,0.254000*%
%ADD15C,1.524000*%
%AMDIL006*
4,1,8,
-1.270000,0.381000,-1.016000,0.635000,1.016000,0.635000,1.270000,0.381000,1.270000,-0.381000,
1.016000,-0.635000,-1.016000,-0.635000,-1.270000,-0.381000,-1.270000,0.381000,
0*%
%ADD16DIL006*%
%ADD17C,2.286000*%
%ADD18R,2.900000X5.400000*%
%ADD19R,2.032000X1.524000*%
%ADD70R,2.032000X3.810000*%
%ADD71R,2.540000X1.016000*%
%ADD20R,0.870000X0.780000*%
%ADD21R,0.780000X0.870000*%
%ADD22R,1.905000X0.635000*%
%AMPPAD015*
4,1,8,
2.641600,-0.279400,
2.641600,0.279400,
0.762000,0.279400,
0.762000,0.914400,
-2.641600,0.914400,
-2.641600,-0.914400,
0.762000,-0.914400,
0.762000,-0.279400,
2.641600,-0.279400,
0*%
%ADD23PPAD015*%
%ADD24R,0.889000X0.889000*%
%ADD25R,5.000000X6.000000*%
%ADD26R,1.016000X1.270000*%
%ADD27C,3.000000*%
%ADD28C,2.032000*%
%ADD29C,0.203200*%
%TD.AperFunction*%
G36*
X-758709Y+4367999D02*
X-904357Y+4367999D01*
X-937322Y+4400964D01*
X-1628702Y+4400964D01*
X-1628701Y+4715651D01*
X-1560765Y+4715651D01*
X-1552500Y+4723916D01*
X-1544235Y+4715651D01*
X-1433765Y+4715651D01*
X-1355651Y+4793765D01*
X-1355651Y+4904235D01*
X-1433765Y+4982349D01*
X-1544235Y+4982349D01*
X-1552500Y+4974084D01*
X-1560765Y+4982349D01*
X-1671235Y+4982349D01*
X-1679500Y+4974084D01*
X-1687765Y+4982349D01*
X-1798235Y+4982349D01*
X-1806500Y+4974084D01*
X-1814765Y+4982349D01*
X-1925235Y+4982349D01*
X-1933500Y+4974084D01*
X-1941765Y+4982349D01*
X-2052235Y+4982349D01*
X-2130349Y+4904235D01*
X-2130349Y+4793765D01*
X-2052235Y+4715651D01*
X-1941765Y+4715651D01*
X-1933500Y+4723916D01*
X-1925235Y+4715651D01*
X-1857299Y+4715651D01*
X-1857298Y+4400964D01*
X-2092912Y+4400963D01*
X-2527299Y+3966576D01*
X-2527299Y+3496309D01*
X-2609851Y+3496309D01*
X-2609851Y+3691889D01*
X-2679701Y+3691889D01*
X-2679701Y+4065451D01*
X-2627451Y+4065451D01*
X-2627451Y+4770549D01*
X-3082549Y+4770549D01*
X-3082549Y+4065451D01*
X-2908299Y+4065451D01*
X-2908299Y+3846052D01*
X-3785590Y+3846052D01*
X-4120893Y+3510749D01*
X-4183756Y+3510749D01*
X-4228507Y+3465998D01*
X-4382182Y+3465998D01*
X-4434421Y+3413759D01*
X-4570451Y+3413759D01*
X-4570451Y+3531871D01*
X-4241042Y+3531871D01*
X-3738494Y+4034419D01*
X-3738494Y+4065451D01*
X-3617451Y+4065451D01*
X-3617451Y+4770549D01*
X-4072549Y+4770549D01*
X-4072549Y+4065451D01*
X-4012786Y+4065451D01*
X-4330468Y+3747769D01*
X-4570451Y+3747769D01*
X-4570451Y+3956049D01*
X-4665701Y+3956049D01*
X-4665701Y+3962617D01*
X-4518567Y+4109751D01*
X-4187451Y+4109751D01*
X-4187451Y+4401849D01*
X-4229361Y+4401849D01*
X-4229361Y+4467201D01*
X-4210481Y+4467201D01*
X-4210481Y+4721199D01*
X-4637199Y+4721199D01*
X-4637199Y+4467201D01*
X-4412239Y+4467201D01*
X-4412239Y+4401849D01*
X-4667509Y+4401849D01*
X-4667509Y+4284093D01*
X-4894299Y+4057303D01*
X-4894299Y+3956049D01*
X-4989549Y+3956049D01*
X-4989549Y+3927739D01*
X-5296799Y+3927739D01*
X-5334339Y+3890199D01*
X-5372901Y+3890199D01*
X-5372902Y+4356224D01*
X-5275451Y+4453675D01*
X-5275451Y+4646325D01*
X-5411675Y+4782549D01*
X-5604325Y+4782549D01*
X-5740549Y+4646325D01*
X-5740549Y+4453675D01*
X-5604325Y+4317451D01*
X-5601498Y+4317451D01*
X-5601499Y+3886106D01*
X-5614200Y+3873405D01*
X-5675444Y+3934649D01*
X-5806956Y+3934649D01*
X-5893391Y+3848214D01*
X-5893391Y+5034291D01*
X-758709Y+5034291D01*
X-758709Y+4367999D01*
G37*
%LPC*%
G36*
X-5232549Y+4453675D02*
X-5232549Y+4646325D01*
X-5096325Y+4782549D01*
X-4903675Y+4782549D01*
X-4767451Y+4646325D01*
X-4767451Y+4453675D01*
X-4903675Y+4317451D01*
X-5096325Y+4317451D01*
X-5232549Y+4453675D01*
G37*
%LPD*%
G36*
X-758709Y+4075549D02*
X-800701Y+4075549D01*
X-800701Y+4114001D01*
X-758709Y+4114001D01*
X-758709Y+4075549D01*
G37*
G36*
X-1797344Y+4172366D02*
X-1388841Y+4172366D01*
X-1397778Y+4163429D01*
X-1397778Y+4075549D01*
X-1801049Y+4075549D01*
X-1801049Y+3950000D01*
X-1997000Y+3950000D01*
X-1997262Y+3810049D01*
X-2026549Y+3810049D01*
X-2026549Y+2667951D01*
X-1999404Y+2667951D01*
X-1999712Y+2503449D01*
X-2478849Y+2503449D01*
X-2478849Y+1738351D01*
X-2299775Y+1738351D01*
X-2299775Y+1603673D01*
X-2456380Y+1447068D01*
X-3367619Y+1447068D01*
X-3328885Y+1553488D01*
X-3345075Y+1588207D01*
X-3194931Y+1738351D01*
X-2913751Y+1738351D01*
X-2913751Y+2503449D01*
X-3420911Y+2503449D01*
X-3416380Y+2507980D01*
X-3416380Y+2618450D01*
X-3494494Y+2696564D01*
X-3604964Y+2696564D01*
X-3619289Y+2682239D01*
X-3944619Y+2682239D01*
X-3944619Y+2586989D01*
X-4038601Y+2586989D01*
X-4038601Y+2682239D01*
X-4169056Y+2682239D01*
X-4284704Y+2683294D01*
X-4251347Y+2716651D01*
X-4244765Y+2716651D01*
X-4166651Y+2794765D01*
X-4166651Y+2905235D01*
X-4244765Y+2983349D01*
X-4355235Y+2983349D01*
X-4433349Y+2905235D01*
X-4433349Y+2857933D01*
X-4478233Y+2813049D01*
X-4809349Y+2813049D01*
X-4809349Y+2794907D01*
X-5012682Y+2998240D01*
X-5251720Y+2998240D01*
X-5372901Y+3119421D01*
X-5372901Y+3339514D01*
X-5342538Y+3309151D01*
X-5179462Y+3309151D01*
X-5064151Y+3424462D01*
X-5064151Y+3531871D01*
X-4989549Y+3531871D01*
X-4989549Y+2983231D01*
X-4570451Y+2983231D01*
X-4570451Y+3185161D01*
X-4339735Y+3185161D01*
X-4287496Y+3237400D01*
X-4227905Y+3237400D01*
X-4215505Y+3225000D01*
X-4276749Y+3163756D01*
X-4276749Y+3032244D01*
X-4183756Y+2939251D01*
X-4052244Y+2939251D01*
X-3959251Y+3032244D01*
X-3959251Y+3163756D01*
X-4020495Y+3225000D01*
X-3959251Y+3286244D01*
X-3959251Y+3319727D01*
X-3951022Y+3327956D01*
X-3959251Y+3346597D01*
X-3959251Y+3349107D01*
X-3690904Y+3617454D01*
X-2978149Y+3617454D01*
X-2978149Y+3416299D01*
X-3239771Y+3416299D01*
X-3239771Y+3575049D01*
X-3608069Y+3575049D01*
X-3608069Y+3028951D01*
X-3239771Y+3028951D01*
X-3239771Y+3187701D01*
X-2978149Y+3187701D01*
X-2978149Y+2912111D01*
X-2609851Y+2912111D01*
X-2609851Y+2914651D01*
X-2203451Y+2914651D01*
X-2203451Y+3181349D01*
X-2541167Y+3181349D01*
X-2492905Y+3229611D01*
X-2203451Y+3229611D01*
X-2203451Y+3496309D01*
X-2298701Y+3496309D01*
X-2298701Y+3871890D01*
X-1998224Y+4172367D01*
X-1797344Y+4172366D01*
G37*
G36*
X-1006439Y+2333125D02*
X-1006439Y+2320865D01*
X-1018910Y+2333336D01*
X-1006439Y+2333125D01*
G37*
G36*
X-1574000Y+2342764D02*
X-1573999Y+2342764D01*
X-1573999Y+1932001D01*
X-1538439Y+1932001D01*
X-1538439Y+1894554D01*
X-1580833Y+1852160D01*
X-1580833Y+1792999D01*
X-1617999Y+1792999D01*
X-1617999Y+1366281D01*
X-1364001Y+1366281D01*
X-1364001Y+1792999D01*
X-1381366Y+1792999D01*
X-1355561Y+1818804D01*
X-1355561Y+1932001D01*
X-1320001Y+1932001D01*
X-1320001Y+2338450D01*
X-1304731Y+2338191D01*
X-1304731Y+2332570D01*
X-1243294Y+2271132D01*
X-1284149Y+2230277D01*
X-1284149Y+2077723D01*
X-1233426Y+2027000D01*
X-1284149Y+1976277D01*
X-1284149Y+1823723D01*
X-1233426Y+1773000D01*
X-1284149Y+1722277D01*
X-1284149Y+1569723D01*
X-1176277Y+1461851D01*
X-1023723Y+1461851D01*
X-915851Y+1569723D01*
X-915851Y+1722277D01*
X-966574Y+1773000D01*
X-915851Y+1823723D01*
X-915851Y+1911134D01*
X-823561Y+2003424D01*
X-823561Y+2134078D01*
X-758709Y+2134078D01*
X-758709Y+1315709D01*
X-2264455Y+1315709D01*
X-2071177Y+1508987D01*
X-2071177Y+1738351D01*
X-1871999Y+1738351D01*
X-1871999Y+1366281D01*
X-1618001Y+1366281D01*
X-1618001Y+1792999D01*
X-1654190Y+1792999D01*
X-1654190Y+1793607D01*
X-1609561Y+1838236D01*
X-1609561Y+1932001D01*
X-1574001Y+1932001D01*
X-1574001Y+2342765D01*
X-1574000Y+2342764D01*
G37*
G36*
X-3578849Y+2371089D02*
X-3590291Y+2371089D01*
X-3590291Y+2429866D01*
X-3578849Y+2429866D01*
X-3578849Y+2371089D01*
G37*
G36*
X-1792439Y+1913986D02*
X-1813751Y+1892674D01*
X-1813751Y+1932001D01*
X-1792439Y+1932001D01*
X-1792439Y+1913986D01*
G37*
G36*
X-5806956Y+3617151D02*
X-5675444Y+3617151D01*
X-5614200Y+3678395D01*
X-5601499Y+3665694D01*
X-5601499Y+3024735D01*
X-5346406Y+2769642D01*
X-5107368Y+2769642D01*
X-4898239Y+2560513D01*
X-4898239Y+2542189D01*
X-4898240Y+2473844D01*
X-4898240Y+2219598D01*
X-4809349Y+2130707D01*
X-4809349Y+2012951D01*
X-4790299Y+2012951D01*
X-4790299Y+1985915D01*
X-4752864Y+1948480D01*
X-4769013Y+1904112D01*
X-4700095Y+1756316D01*
X-4546854Y+1700541D01*
X-4399058Y+1769459D01*
X-4388267Y+1799107D01*
X-4343347Y+1799107D01*
X-4102939Y+2039515D01*
X-4102939Y+2148841D01*
X-4038601Y+2148841D01*
X-4038601Y+2239011D01*
X-3947159Y+2239011D01*
X-3947159Y+2148841D01*
X-3591561Y+2148841D01*
X-3591561Y+2155191D01*
X-3578849Y+2155191D01*
X-3578849Y+1744093D01*
X-3698840Y+1688141D01*
X-3754615Y+1534900D01*
X-3713659Y+1447068D01*
X-4585426Y+1447068D01*
X-4767451Y+1629093D01*
X-4767451Y+1796325D01*
X-4903675Y+1932549D01*
X-5096325Y+1932549D01*
X-5232549Y+1796325D01*
X-5232549Y+1603675D01*
X-5096325Y+1467451D01*
X-4929093Y+1467451D01*
X-4777351Y+1315709D01*
X-5893391Y+1315709D01*
X-5893391Y+3703586D01*
X-5806956Y+3617151D01*
G37*
%LPC*%
G36*
X-5064151Y+2508038D02*
X-5064151Y+2344962D01*
X-5179462Y+2229651D01*
X-5342538Y+2229651D01*
X-5457849Y+2344962D01*
X-5457849Y+2508038D01*
X-5342538Y+2623349D01*
X-5179462Y+2623349D01*
X-5064151Y+2508038D01*
G37*
G36*
X-5275451Y+1796325D02*
X-5275451Y+1603675D01*
X-5411675Y+1467451D01*
X-5604325Y+1467451D01*
X-5740549Y+1603675D01*
X-5740549Y+1796325D01*
X-5604325Y+1932549D01*
X-5411675Y+1932549D01*
X-5275451Y+1796325D01*
G37*
%LPD*%
D10*
X-4320800Y+4255800D02*
X-4320800Y+4577520D01*
X-4337480Y+4594200D01*
D11*
X-4534160Y+4255800D02*
X-4780000Y+4009960D01*
X-4780000Y+3810000D01*
X-5487200Y+3775900D02*
X-5286996Y+3775900D01*
X-5249456Y+3813440D01*
X-4783440Y+3813440D01*
X-4780000Y+3810000D01*
D12*
X-5261000Y+3506000D02*
X-5127180Y+3639820D01*
X-4780000Y+3639820D01*
X-4285755Y+3639820D01*
X-3846443Y+4079132D01*
X-3846443Y+4369763D01*
X-3844724Y+4371482D01*
X-3845000Y+4418000D01*
D11*
X-4780000Y+3299460D02*
X-4387078Y+3299460D01*
X-4334839Y+3351699D01*
X-4088921Y+3351699D01*
X-4087202Y+3353418D01*
X-4118000Y+3352000D01*
X-2794000Y+3533140D02*
X-2794000Y+3645781D01*
X-2794000Y+4361310D01*
X-2829967Y+4397277D01*
X-2855000Y+4418000D01*
X-4118000Y+3352000D02*
X-3738247Y+3731753D01*
X-2879972Y+3731753D01*
X-2794000Y+3645781D01*
X-4462640Y+2667000D02*
X-4364874Y+2569234D01*
X-4311650Y+2569234D01*
X-4216400Y+2567940D01*
X-4462640Y+2413000D02*
X-4462640Y+2667000D01*
X-4462640Y+2159000D02*
X-4462640Y+2413000D01*
X-4774818Y+2667000D02*
X-4843084Y+2667000D01*
X-4982638Y+2806554D01*
X-5060025Y+2883941D01*
X-5299063Y+2883941D01*
X-5487200Y+3072078D01*
X-5487200Y+3775900D01*
X-4676000Y+2413000D02*
X-4770441Y+2413000D01*
X-4783941Y+2426500D01*
X-4783941Y+2657877D01*
X-4774818Y+2667000D01*
X-4726800Y+2667000D01*
X-4676000Y+2667000D01*
X-4676000Y+2159000D02*
X-4783941Y+2266941D01*
X-4783941Y+2426500D01*
X-4774818Y+2667000D02*
X-4726800Y+2667000D01*
X-4676000Y+2667000D01*
X-4676000Y+2159000D02*
X-4676000Y+2033258D01*
X-4556148Y+1913406D01*
X-4390690Y+1913406D01*
X-4217238Y+2086858D01*
X-4217238Y+2262302D01*
X-4216400Y+2263140D01*
D12*
X-3769360Y+2263140D02*
X-3388540Y+2263140D01*
X-3246300Y+2120900D01*
X-3541750Y+1544194D02*
X-3229335Y+1856609D01*
X-3229335Y+2153066D01*
X-3246300Y+2120900D01*
D11*
X-2146300Y+2120900D02*
X-2185476Y+2081724D01*
X-2185476Y+1556330D01*
X-2409037Y+1332769D01*
X-4427967Y+1332769D01*
X-4632769Y+1332769D01*
X-5000000Y+1700000D01*
D10*
X-915000Y+2534000D02*
X-915000Y+2041299D01*
X-998400Y+1957899D01*
X-1100000Y+1900000D01*
X-1425000Y+2534000D02*
X-1425000Y+2253720D01*
X-1447000Y+2231720D01*
X-1675000Y+2534000D02*
X-1675000Y+2257720D01*
X-1701000Y+2231720D01*
X-1701000Y+2059000D02*
X-1701000Y+1876111D01*
X-1745629Y+1831482D01*
X-1745629Y+1666629D01*
X-1745000Y+1666000D01*
X-1447000Y+2059000D02*
X-1447000Y+1856679D01*
X-1489394Y+1814285D01*
X-1489394Y+1667606D01*
X-1491000Y+1666000D01*
D11*
X-2761179Y+3293229D02*
X-2590929Y+3293229D01*
X-2540000Y+3344158D01*
X-2413000Y+3362960D01*
X-3423920Y+3302000D02*
X-2769950Y+3302000D01*
X-2761179Y+3293229D01*
X-2794000Y+3302000D01*
X-915000Y+3954000D02*
X-915000Y+4115034D01*
X-933269Y+4133303D01*
X-933269Y+4235269D01*
X-939000Y+4241000D01*
D10*
X-782597Y+2267427D02*
X-782597Y+2531597D01*
X-785000Y+2534000D01*
X-1175000Y+2534000D02*
X-1175000Y+2391423D01*
X-1171382Y+2387805D01*
X-3549729Y+2563215D02*
X-3762095Y+2563215D01*
X-3766820Y+2567940D01*
D11*
X-4462640Y+2667000D02*
X-4300000Y+2829640D01*
X-4300000Y+2850000D01*
X-3937000Y+2413000D02*
X-4287000Y+2413000D01*
X-4300000Y+2400000D01*
X-1743000Y+4849000D02*
X-1743000Y+4293665D01*
X-1750000Y+4286665D01*
X-2413000Y+3362960D02*
X-2413000Y+3919233D01*
X-2045568Y+4286665D01*
X-1750000Y+4286665D01*
X-984665Y+4286665D01*
X-939000Y+4241000D01*
D10*
X-1045000Y+3954000D02*
X-1050000Y+3959000D01*
X-1050000Y+4100000D01*
X-1175000Y+3954000D02*
X-1175000Y+4029111D01*
X-1264429Y+4118540D01*
X-1264429Y+4108194D01*
D11*
X-5487200Y+3775900D02*
X-5487200Y+4529200D01*
X-5508000Y+4550000D01*
D13*
X-782597Y+2267427D03*
X-1171382Y+2387805D03*
X-3549729Y+2563215D03*
X-4300000Y+2850000D03*
X-4300000Y+2400000D03*
X-1050000Y+4100000D03*
X-1264429Y+4108194D03*
D11*
X-758709Y+4367999D02*
X-904357Y+4367999D01*
X-937322Y+4400964D01*
X-1628702Y+4400964D01*
X-1628701Y+4715651D01*
X-1560765Y+4715651D01*
X-1552500Y+4723916D01*
X-1544235Y+4715651D01*
X-1433765Y+4715651D01*
X-1355651Y+4793765D01*
X-1355651Y+4904235D01*
X-1433765Y+4982349D01*
X-1544235Y+4982349D01*
X-1552500Y+4974084D01*
X-1560765Y+4982349D01*
X-1671235Y+4982349D01*
X-1679500Y+4974084D01*
X-1687765Y+4982349D01*
X-1798235Y+4982349D01*
X-1806500Y+4974084D01*
X-1814765Y+4982349D01*
X-1925235Y+4982349D01*
X-1933500Y+4974084D01*
X-1941765Y+4982349D01*
X-2052235Y+4982349D01*
X-2130349Y+4904235D01*
X-2130349Y+4793765D01*
X-2052235Y+4715651D01*
X-1941765Y+4715651D01*
X-1933500Y+4723916D01*
X-1925235Y+4715651D01*
X-1857299Y+4715651D01*
X-1857298Y+4400964D01*
X-2092912Y+4400963D01*
X-2527299Y+3966576D01*
X-2527299Y+3496309D01*
X-2609851Y+3496309D01*
X-2609851Y+3691889D01*
X-2679701Y+3691889D01*
X-2679701Y+4065451D01*
X-2627451Y+4065451D01*
X-2627451Y+4770549D01*
X-3082549Y+4770549D01*
X-3082549Y+4065451D01*
X-2908299Y+4065451D01*
X-2908299Y+3846052D01*
X-3785590Y+3846052D01*
X-4120893Y+3510749D01*
X-4183756Y+3510749D01*
X-4228507Y+3465998D01*
X-4382182Y+3465998D01*
X-4434421Y+3413759D01*
X-4570451Y+3413759D01*
X-4570451Y+3531871D01*
X-4241042Y+3531871D01*
X-3738494Y+4034419D01*
X-3738494Y+4065451D01*
X-3617451Y+4065451D01*
X-3617451Y+4770549D01*
X-4072549Y+4770549D01*
X-4072549Y+4065451D01*
X-4012786Y+4065451D01*
X-4330468Y+3747769D01*
X-4570451Y+3747769D01*
X-4570451Y+3956049D01*
X-4665701Y+3956049D01*
X-4665701Y+3962617D01*
X-4518567Y+4109751D01*
X-4187451Y+4109751D01*
X-4187451Y+4401849D01*
X-4229361Y+4401849D01*
X-4229361Y+4467201D01*
X-4210481Y+4467201D01*
X-4210481Y+4721199D01*
X-4637199Y+4721199D01*
X-4637199Y+4467201D01*
X-4412239Y+4467201D01*
X-4412239Y+4401849D01*
X-4667509Y+4401849D01*
X-4667509Y+4284093D01*
X-4894299Y+4057303D01*
X-4894299Y+3956049D01*
X-4989549Y+3956049D01*
X-4989549Y+3927739D01*
X-5296799Y+3927739D01*
X-5334339Y+3890199D01*
X-5372901Y+3890199D01*
X-5372902Y+4356224D01*
X-5275451Y+4453675D01*
X-5275451Y+4646325D01*
X-5411675Y+4782549D01*
X-5604325Y+4782549D01*
X-5740549Y+4646325D01*
X-5740549Y+4453675D01*
X-5604325Y+4317451D01*
X-5601498Y+4317451D01*
X-5601499Y+3886106D01*
X-5614200Y+3873405D01*
X-5675444Y+3934649D01*
X-5806956Y+3934649D01*
X-5893391Y+3848214D01*
X-5893391Y+5034291D01*
X-758709Y+5034291D01*
X-758709Y+4367999D01*
X-5232549Y+4453675D02*
X-5232549Y+4646325D01*
X-5096325Y+4782549D01*
X-4903675Y+4782549D01*
X-4767451Y+4646325D01*
X-4767451Y+4453675D01*
X-4903675Y+4317451D01*
X-5096325Y+4317451D01*
X-5232549Y+4453675D01*
X-758709Y+4075549D02*
X-800701Y+4075549D01*
X-800701Y+4114001D01*
X-758709Y+4114001D01*
X-758709Y+4075549D01*
X-1797344Y+4172366D02*
X-1388841Y+4172366D01*
X-1397778Y+4163429D01*
X-1397778Y+4075549D01*
X-1801049Y+4075549D01*
X-1801049Y+3950000D01*
X-1997000Y+3950000D01*
X-1997262Y+3810049D01*
X-2026549Y+3810049D01*
X-2026549Y+2667951D01*
X-1999404Y+2667951D01*
X-1999712Y+2503449D01*
X-2478849Y+2503449D01*
X-2478849Y+1738351D01*
X-2299775Y+1738351D01*
X-2299775Y+1603673D01*
X-2456380Y+1447068D01*
X-3367619Y+1447068D01*
X-3328885Y+1553488D01*
X-3345075Y+1588207D01*
X-3194931Y+1738351D01*
X-2913751Y+1738351D01*
X-2913751Y+2503449D01*
X-3420911Y+2503449D01*
X-3416380Y+2507980D01*
X-3416380Y+2618450D01*
X-3494494Y+2696564D01*
X-3604964Y+2696564D01*
X-3619289Y+2682239D01*
X-3944619Y+2682239D01*
X-3944619Y+2586989D01*
X-4038601Y+2586989D01*
X-4038601Y+2682239D01*
X-4169056Y+2682239D01*
X-4284704Y+2683294D01*
X-4251347Y+2716651D01*
X-4244765Y+2716651D01*
X-4166651Y+2794765D01*
X-4166651Y+2905235D01*
X-4244765Y+2983349D01*
X-4355235Y+2983349D01*
X-4433349Y+2905235D01*
X-4433349Y+2857933D01*
X-4478233Y+2813049D01*
X-4809349Y+2813049D01*
X-4809349Y+2794907D01*
X-5012682Y+2998240D01*
X-5251720Y+2998240D01*
X-5372901Y+3119421D01*
X-5372901Y+3339514D01*
X-5342538Y+3309151D01*
X-5179462Y+3309151D01*
X-5064151Y+3424462D01*
X-5064151Y+3531871D01*
X-4989549Y+3531871D01*
X-4989549Y+2983231D01*
X-4570451Y+2983231D01*
X-4570451Y+3185161D01*
X-4339735Y+3185161D01*
X-4287496Y+3237400D01*
X-4227905Y+3237400D01*
X-4215505Y+3225000D01*
X-4276749Y+3163756D01*
X-4276749Y+3032244D01*
X-4183756Y+2939251D01*
X-4052244Y+2939251D01*
X-3959251Y+3032244D01*
X-3959251Y+3163756D01*
X-4020495Y+3225000D01*
X-3959251Y+3286244D01*
X-3959251Y+3319727D01*
X-3951022Y+3327956D01*
X-3959251Y+3346597D01*
X-3959251Y+3349107D01*
X-3690904Y+3617454D01*
X-2978149Y+3617454D01*
X-2978149Y+3416299D01*
X-3239771Y+3416299D01*
X-3239771Y+3575049D01*
X-3608069Y+3575049D01*
X-3608069Y+3028951D01*
X-3239771Y+3028951D01*
X-3239771Y+3187701D01*
X-2978149Y+3187701D01*
X-2978149Y+2912111D01*
X-2609851Y+2912111D01*
X-2609851Y+2914651D01*
X-2203451Y+2914651D01*
X-2203451Y+3181349D01*
X-2541167Y+3181349D01*
X-2492905Y+3229611D01*
X-2203451Y+3229611D01*
X-2203451Y+3496309D01*
X-2298701Y+3496309D01*
X-2298701Y+3871890D01*
X-1998224Y+4172367D01*
X-1797344Y+4172366D01*
X-1006439Y+2333125D02*
X-1006439Y+2320865D01*
X-1018910Y+2333336D01*
X-1006439Y+2333125D01*
X-1574000Y+2342764D02*
X-1573999Y+2342764D01*
X-1573999Y+1932001D01*
X-1538439Y+1932001D01*
X-1538439Y+1894554D01*
X-1580833Y+1852160D01*
X-1580833Y+1792999D01*
X-1617999Y+1792999D01*
X-1617999Y+1366281D01*
X-1364001Y+1366281D01*
X-1364001Y+1792999D01*
X-1381366Y+1792999D01*
X-1355561Y+1818804D01*
X-1355561Y+1932001D01*
X-1320001Y+1932001D01*
X-1320001Y+2338450D01*
X-1304731Y+2338191D01*
X-1304731Y+2332570D01*
X-1243294Y+2271132D01*
X-1284149Y+2230277D01*
X-1284149Y+2077723D01*
X-1233426Y+2027000D01*
X-1284149Y+1976277D01*
X-1284149Y+1823723D01*
X-1233426Y+1773000D01*
X-1284149Y+1722277D01*
X-1284149Y+1569723D01*
X-1176277Y+1461851D01*
X-1023723Y+1461851D01*
X-915851Y+1569723D01*
X-915851Y+1722277D01*
X-966574Y+1773000D01*
X-915851Y+1823723D01*
X-915851Y+1911134D01*
X-823561Y+2003424D01*
X-823561Y+2134078D01*
X-758709Y+2134078D01*
X-758709Y+1315709D01*
X-2264455Y+1315709D01*
X-2071177Y+1508987D01*
X-2071177Y+1738351D01*
X-1871999Y+1738351D01*
X-1871999Y+1366281D01*
X-1618001Y+1366281D01*
X-1618001Y+1792999D01*
X-1654190Y+1792999D01*
X-1654190Y+1793607D01*
X-1609561Y+1838236D01*
X-1609561Y+1932001D01*
X-1574001Y+1932001D01*
X-1574001Y+2342765D01*
X-1574000Y+2342764D01*
X-3578849Y+2371089D02*
X-3590291Y+2371089D01*
X-3590291Y+2429866D01*
X-3578849Y+2429866D01*
X-3578849Y+2371089D01*
X-1792439Y+1913986D02*
X-1813751Y+1892674D01*
X-1813751Y+1932001D01*
X-1792439Y+1932001D01*
X-1792439Y+1913986D01*
X-5806956Y+3617151D02*
X-5675444Y+3617151D01*
X-5614200Y+3678395D01*
X-5601499Y+3665694D01*
X-5601499Y+3024735D01*
X-5346406Y+2769642D01*
X-5107368Y+2769642D01*
X-4898239Y+2560513D01*
X-4898239Y+2542189D01*
X-4898240Y+2473844D01*
X-4898240Y+2219598D01*
X-4809349Y+2130707D01*
X-4809349Y+2012951D01*
X-4790299Y+2012951D01*
X-4790299Y+1985915D01*
X-4752864Y+1948480D01*
X-4769013Y+1904112D01*
X-4700095Y+1756316D01*
X-4546854Y+1700541D01*
X-4399058Y+1769459D01*
X-4388267Y+1799107D01*
X-4343347Y+1799107D01*
X-4102939Y+2039515D01*
X-4102939Y+2148841D01*
X-4038601Y+2148841D01*
X-4038601Y+2239011D01*
X-3947159Y+2239011D01*
X-3947159Y+2148841D01*
X-3591561Y+2148841D01*
X-3591561Y+2155191D01*
X-3578849Y+2155191D01*
X-3578849Y+1744093D01*
X-3698840Y+1688141D01*
X-3754615Y+1534900D01*
X-3713659Y+1447068D01*
X-4585426Y+1447068D01*
X-4767451Y+1629093D01*
X-4767451Y+1796325D01*
X-4903675Y+1932549D01*
X-5096325Y+1932549D01*
X-5232549Y+1796325D01*
X-5232549Y+1603675D01*
X-5096325Y+1467451D01*
X-4929093Y+1467451D01*
X-4777351Y+1315709D01*
X-5893391Y+1315709D01*
X-5893391Y+3703586D01*
X-5806956Y+3617151D01*
X-5064151Y+2508038D02*
X-5064151Y+2344962D01*
X-5179462Y+2229651D01*
X-5342538Y+2229651D01*
X-5457849Y+2344962D01*
X-5457849Y+2508038D01*
X-5342538Y+2623349D01*
X-5179462Y+2623349D01*
X-5064151Y+2508038D01*
X-5275451Y+1796325D02*
X-5275451Y+1603675D01*
X-5411675Y+1467451D01*
X-5604325Y+1467451D01*
X-5740549Y+1603675D01*
X-5740549Y+1796325D01*
X-5604325Y+1932549D01*
X-5411675Y+1932549D01*
X-5275451Y+1796325D01*
D14*
X-5741200Y+3934649D02*
X-5741200Y+3775900D01*
X-5741200Y+3617151D02*
X-5741200Y+3775900D01*
X-4989549Y+3469640D02*
X-4780000Y+3469640D01*
X-4570451Y+3469640D02*
X-4780000Y+3469640D01*
X-4780000Y+2983231D02*
X-4780000Y+3129280D01*
X-4989549Y+3129280D02*
X-4780000Y+3129280D01*
X-4570451Y+3129280D02*
X-4780000Y+3129280D01*
X-5064151Y+2426500D02*
X-5261000Y+2426500D01*
X-5457849Y+2426500D02*
X-5261000Y+2426500D01*
X-5261000Y+2623349D02*
X-5261000Y+2426500D01*
X-5261000Y+2229651D02*
X-5261000Y+2426500D01*
X-4118000Y+2939251D02*
X-4118000Y+3098000D01*
X-4276749Y+3098000D02*
X-4118000Y+3098000D01*
X-3959251Y+3098000D02*
X-4118000Y+3098000D01*
X-2794000Y+2912111D02*
X-2794000Y+3070860D01*
X-2978149Y+3070860D02*
X-2794000Y+3070860D01*
X-2413000Y+2914651D02*
X-2413000Y+3048000D01*
X-2413000Y+3181349D02*
X-2413000Y+3048000D01*
X-2203451Y+3048000D02*
X-2413000Y+3048000D01*
X-785000Y+4075549D02*
X-785000Y+3954000D01*
X-3590291Y+2413000D02*
X-3937000Y+2413000D01*
X-766280Y+4114001D02*
X-766280Y+4241000D01*
X-766280Y+4367999D02*
X-766280Y+4241000D01*
X-1745000Y+1366281D02*
X-1745000Y+1493280D01*
X-1871999Y+1493280D02*
X-1745000Y+1493280D01*
X-1618001Y+1493280D02*
X-1745000Y+1493280D01*
X-1491000Y+1366281D02*
X-1491000Y+1493280D01*
X-1617999Y+1493280D02*
X-1491000Y+1493280D01*
X-1364001Y+1493280D02*
X-1491000Y+1493280D01*
X-4637199Y+4594200D02*
X-4510200Y+4594200D01*
X-4510200Y+4721199D02*
X-4510200Y+4594200D01*
X-4510200Y+4467201D02*
X-4510200Y+4594200D01*
X-1489000Y+4982349D02*
X-1489000Y+4849000D01*
X-1489000Y+4715651D02*
X-1489000Y+4849000D01*
X-1355651Y+4849000D02*
X-1489000Y+4849000D01*
X-5232549Y+4550000D02*
X-5000000Y+4550000D01*
X-4767451Y+4550000D02*
X-5000000Y+4550000D01*
X-5000000Y+4317451D02*
X-5000000Y+4550000D01*
X-5000000Y+4782549D02*
X-5000000Y+4550000D01*
X-1100000Y+1461851D02*
X-1100000Y+1646000D01*
X-1284149Y+1646000D02*
X-1100000Y+1646000D01*
X-915851Y+1646000D02*
X-1100000Y+1646000D01*
D15*
X-5487200Y+3775900D03*
X-5741200Y+3775900D03*
D16*
X-4780000Y+3810000D03*
X-4780000Y+3639820D03*
X-4780000Y+3469640D03*
X-4780000Y+3299460D03*
X-4780000Y+3129280D03*
D17*
X-5261000Y+2426500D03*
X-5261000Y+3506000D03*
D15*
X-4118000Y+3352000D03*
X-4118000Y+3098000D03*
D18*
X-3845000Y+4418000D03*
X-2855000Y+4418000D03*
D19*
X-2794000Y+3070860D03*
X-2794000Y+3302000D03*
X-2794000Y+3533140D03*
D70*
X-3423920Y+3302000D03*
D71*
X-2413000Y+3048000D03*
X-2413000Y+3362960D03*
D20*
X-785000Y+3954000D03*
X-915000Y+3954000D03*
X-1045000Y+3954000D03*
X-1175000Y+3954000D03*
X-1295000Y+3954000D03*
X-1425000Y+3954000D03*
X-1555000Y+3954000D03*
X-1675000Y+3954000D03*
D21*
X-1905000Y+3684000D03*
X-1905000Y+3554000D03*
X-1905000Y+3424000D03*
X-1905000Y+3304000D03*
X-1905000Y+3174000D03*
X-1905000Y+3054000D03*
X-1905000Y+2924000D03*
X-1905000Y+2794000D03*
D20*
X-1675000Y+2534000D03*
X-1555000Y+2534000D03*
X-1425000Y+2534000D03*
X-1295000Y+2534000D03*
X-1175000Y+2534000D03*
X-1045000Y+2534000D03*
X-915000Y+2534000D03*
X-785000Y+2534000D03*
D22*
X-3769360Y+2263140D03*
D23*
X-3937000Y+2413000D03*
D22*
X-3766820Y+2567940D03*
X-4216400Y+2567940D03*
X-4216400Y+2263140D03*
D24*
X-939000Y+4241000D03*
X-766280Y+4241000D03*
D17*
X-3541750Y+1544194D03*
X-4556148Y+1913406D03*
D25*
X-3246300Y+2120900D03*
X-2146300Y+2120900D03*
D26*
X-4676000Y+2159000D03*
X-4462640Y+2159000D03*
X-4676000Y+2413000D03*
X-4462640Y+2413000D03*
X-4676000Y+2667000D03*
X-4462640Y+2667000D03*
D24*
X-1701000Y+2059000D03*
X-1701000Y+2231720D03*
D26*
X-4534160Y+4255800D03*
X-4320800Y+4255800D03*
D24*
X-1447000Y+2231720D03*
X-1447000Y+2059000D03*
X-1745000Y+1666000D03*
X-1745000Y+1493280D03*
X-1491000Y+1666000D03*
X-1491000Y+1493280D03*
X-4337480Y+4594200D03*
X-4510200Y+4594200D03*
D13*
X-1489000Y+4849000D03*
X-1616000Y+4849000D03*
X-1743000Y+4849000D03*
X-1870000Y+4849000D03*
X-1997000Y+4849000D03*
D27*
X-5508000Y+4550000D03*
X-5000000Y+4550000D03*
X-5000000Y+1700000D03*
X-5508000Y+1700000D03*
D28*
X-1100000Y+2154000D03*
X-1100000Y+1900000D03*
X-1100000Y+1646000D03*
D29*
X-5986100Y+1223000D02*
X-666000Y+1223000D01*
X-666000Y+5127000D01*
X-5986100Y+5127000D01*
X-5986100Y+1223000D01*
M02*
