G04 PROTEUS RS274X GERBER FILE*
%FSLAX45Y45*%
%MOMM*%
G01*
%ADD29C,0.203200*%
%ADD72C,0.025400*%
%TD.AperFunction*%
G36*
X-5379000Y+3066500D02*
X-5379000Y+3116500D01*
X-5119000Y+3116500D01*
X-5119000Y+3066500D01*
X-5379000Y+3066500D01*
G37*
G36*
X-4141571Y+1913626D02*
X-4230496Y+1669306D01*
X-4183512Y+1652205D01*
X-4094586Y+1896525D01*
X-4141571Y+1913626D01*
G37*
D29*
X-5986100Y+1223000D02*
X-666000Y+1223000D01*
X-666000Y+5127000D01*
X-5986100Y+5127000D01*
X-5986100Y+1223000D01*
X-5360200Y+3775900D02*
X-5361027Y+3796383D01*
X-5367745Y+3837350D01*
X-5381763Y+3878317D01*
X-5404541Y+3919284D01*
X-5439341Y+3960129D01*
X-5480308Y+3991745D01*
X-5521275Y+4012292D01*
X-5562242Y+4024529D01*
X-5603209Y+4029662D01*
X-5614200Y+4029900D01*
X-5868200Y+3775900D02*
X-5867373Y+3796383D01*
X-5860655Y+3837350D01*
X-5846637Y+3878317D01*
X-5823859Y+3919284D01*
X-5789059Y+3960129D01*
X-5748092Y+3991745D01*
X-5707125Y+4012292D01*
X-5666158Y+4024529D01*
X-5625191Y+4029662D01*
X-5614200Y+4029900D01*
X-5868200Y+3775900D02*
X-5867373Y+3755417D01*
X-5860655Y+3714450D01*
X-5846637Y+3673483D01*
X-5823859Y+3632516D01*
X-5789059Y+3591671D01*
X-5748092Y+3560055D01*
X-5707125Y+3539508D01*
X-5666158Y+3527271D01*
X-5625191Y+3522138D01*
X-5614200Y+3521900D01*
X-5360200Y+3775900D02*
X-5361027Y+3755417D01*
X-5367745Y+3714450D01*
X-5381763Y+3673483D01*
X-5404541Y+3632516D01*
X-5439341Y+3591671D01*
X-5480308Y+3560055D01*
X-5521275Y+3539508D01*
X-5562242Y+3527271D01*
X-5603209Y+3522138D01*
X-5614200Y+3521900D01*
X-5423700Y+3648900D02*
X-5550700Y+3648900D01*
X-5487200Y+3585400D02*
X-5487200Y+3712400D01*
X-5645030Y+3405060D02*
X-5660905Y+3389820D01*
X-5708530Y+3389820D01*
X-5740280Y+3420300D01*
X-5740280Y+3450780D01*
X-5708530Y+3481260D01*
X-5660905Y+3481260D01*
X-5645030Y+3466020D01*
X-5581530Y+3450780D02*
X-5549780Y+3481260D01*
X-5549780Y+3389820D01*
X-4957800Y+2946400D02*
X-4475200Y+2946400D01*
X-4475200Y+4000500D01*
X-4957800Y+4000500D01*
X-4957800Y+2946400D01*
X-4604740Y+4000500D02*
X-4604740Y+2946400D01*
X-4604740Y+3934460D02*
X-4477740Y+3807460D01*
X-4604740Y+3804920D02*
X-4477740Y+3677920D01*
X-4604740Y+3804920D02*
X-4477740Y+3677920D01*
X-4604740Y+3675380D02*
X-4477740Y+3548380D01*
X-4604740Y+3675380D02*
X-4477740Y+3548380D01*
X-4604740Y+3545840D02*
X-4477740Y+3418840D01*
X-4602200Y+3543300D02*
X-4475200Y+3416300D01*
X-4602200Y+3413760D02*
X-4475200Y+3286760D01*
X-4602200Y+3413760D02*
X-4475200Y+3286760D01*
X-4602200Y+3284220D02*
X-4475200Y+3157220D01*
X-4602200Y+3284220D02*
X-4475200Y+3157220D01*
X-4602200Y+3154680D02*
X-4475200Y+3027680D01*
X-4402378Y+3480452D02*
X-4326178Y+3480452D01*
X-4310938Y+3496327D01*
X-4310938Y+3559827D01*
X-4326178Y+3575702D01*
X-4402378Y+3575702D01*
X-4371898Y+3639202D02*
X-4402378Y+3670952D01*
X-4310938Y+3670952D01*
X-5389000Y+2706500D02*
X-5119000Y+2706500D01*
X-5119000Y+3226500D01*
X-5389000Y+3226500D01*
X-5389000Y+2706500D01*
X-5379000Y+3066500D02*
X-5119000Y+3066500D01*
X-5119000Y+3116500D01*
X-5379000Y+3116500D01*
X-5379000Y+3066500D01*
X-5259000Y+3236500D02*
X-5259000Y+3396500D01*
X-5259000Y+2706500D02*
X-5259000Y+2546500D01*
X-5486920Y+2839250D02*
X-5578360Y+2839250D01*
X-5578360Y+2902750D01*
X-5547880Y+2934500D01*
X-5517400Y+2934500D01*
X-5486920Y+2902750D01*
X-5486920Y+2839250D01*
X-5547880Y+2998000D02*
X-5578360Y+3029750D01*
X-5486920Y+3029750D01*
X-3864000Y+3225000D02*
X-3864827Y+3245483D01*
X-3871545Y+3286450D01*
X-3885563Y+3327417D01*
X-3908341Y+3368384D01*
X-3943141Y+3409229D01*
X-3984108Y+3440845D01*
X-4025075Y+3461392D01*
X-4066042Y+3473629D01*
X-4107009Y+3478762D01*
X-4118000Y+3479000D01*
X-4372000Y+3225000D02*
X-4371173Y+3245483D01*
X-4364455Y+3286450D01*
X-4350437Y+3327417D01*
X-4327659Y+3368384D01*
X-4292859Y+3409229D01*
X-4251892Y+3440845D01*
X-4210925Y+3461392D01*
X-4169958Y+3473629D01*
X-4128991Y+3478762D01*
X-4118000Y+3479000D01*
X-4372000Y+3225000D02*
X-4371173Y+3204517D01*
X-4364455Y+3163550D01*
X-4350437Y+3122583D01*
X-4327659Y+3081616D01*
X-4292859Y+3040771D01*
X-4251892Y+3009155D01*
X-4210925Y+2988608D01*
X-4169958Y+2976371D01*
X-4128991Y+2971238D01*
X-4118000Y+2971000D01*
X-3864000Y+3225000D02*
X-3864827Y+3204517D01*
X-3871545Y+3163550D01*
X-3885563Y+3122583D01*
X-3908341Y+3081616D01*
X-3943141Y+3040771D01*
X-3984108Y+3009155D01*
X-4025075Y+2988608D01*
X-4066042Y+2976371D01*
X-4107009Y+2971238D01*
X-4118000Y+2971000D01*
X-3991000Y+3415500D02*
X-3991000Y+3288500D01*
X-3927500Y+3352000D02*
X-4054500Y+3352000D01*
X-3747160Y+3194170D02*
X-3731920Y+3178295D01*
X-3731920Y+3130670D01*
X-3762400Y+3098920D01*
X-3792880Y+3098920D01*
X-3823360Y+3130670D01*
X-3823360Y+3178295D01*
X-3808120Y+3194170D01*
X-3762400Y+3321170D02*
X-3762400Y+3225920D01*
X-3823360Y+3289420D01*
X-3731920Y+3289420D01*
X-3950000Y+3808000D02*
X-2750000Y+3808000D01*
X-2750000Y+5008000D01*
X-3950000Y+5008000D01*
X-3950000Y+3808000D01*
X-2800000Y+4418000D02*
X-2801531Y+4457100D01*
X-2813954Y+4535301D01*
X-2839806Y+4613502D01*
X-2881566Y+4691703D01*
X-2944805Y+4769904D01*
X-3022998Y+4834257D01*
X-3101199Y+4876779D01*
X-3179400Y+4903238D01*
X-3257601Y+4916199D01*
X-3300000Y+4918000D01*
X-3800000Y+4418000D02*
X-3798469Y+4457100D01*
X-3786046Y+4535301D01*
X-3760194Y+4613502D01*
X-3718434Y+4691703D01*
X-3655195Y+4769904D01*
X-3577002Y+4834257D01*
X-3498801Y+4876779D01*
X-3420600Y+4903238D01*
X-3342399Y+4916199D01*
X-3300000Y+4918000D01*
X-3800000Y+4418000D02*
X-3798469Y+4378900D01*
X-3786046Y+4300699D01*
X-3760194Y+4222498D01*
X-3718434Y+4144297D01*
X-3655195Y+4066096D01*
X-3577002Y+4001743D01*
X-3498801Y+3959221D01*
X-3420600Y+3932762D01*
X-3342399Y+3919801D01*
X-3300000Y+3918000D01*
X-2800000Y+4418000D02*
X-2801531Y+4378900D01*
X-2813954Y+4300699D01*
X-2839806Y+4222498D01*
X-2881566Y+4144297D01*
X-2944805Y+4066096D01*
X-3022998Y+4001743D01*
X-3101199Y+3959221D01*
X-3179400Y+3932762D01*
X-3257601Y+3919801D01*
X-3300000Y+3918000D01*
X-2869884Y+4418000D02*
X-2871224Y+4451927D01*
X-2882100Y+4519782D01*
X-2904749Y+4587637D01*
X-2941395Y+4655492D01*
X-2997071Y+4723342D01*
X-3064926Y+4778194D01*
X-3132781Y+4814280D01*
X-3200636Y+4836481D01*
X-3268491Y+4846960D01*
X-3300000Y+4848116D01*
X-3730116Y+4418000D02*
X-3728776Y+4451927D01*
X-3717900Y+4519782D01*
X-3695251Y+4587637D01*
X-3658605Y+4655492D01*
X-3602929Y+4723342D01*
X-3535074Y+4778194D01*
X-3467219Y+4814280D01*
X-3399364Y+4836481D01*
X-3331509Y+4846960D01*
X-3300000Y+4848116D01*
X-3730116Y+4418000D02*
X-3728776Y+4384073D01*
X-3717900Y+4316218D01*
X-3695251Y+4248363D01*
X-3658605Y+4180508D01*
X-3602929Y+4112658D01*
X-3535074Y+4057806D01*
X-3467219Y+4021720D01*
X-3399364Y+3999519D01*
X-3331509Y+3989040D01*
X-3300000Y+3987884D01*
X-2869884Y+4418000D02*
X-2871224Y+4384073D01*
X-2882100Y+4316218D01*
X-2904749Y+4248363D01*
X-2941395Y+4180508D01*
X-2997071Y+4112658D01*
X-3064926Y+4057806D01*
X-3132781Y+4021720D01*
X-3200636Y+3999519D01*
X-3268491Y+3989040D01*
X-3300000Y+3987884D01*
X-2677000Y+4840080D02*
X-2677000Y+4748640D01*
X-2581750Y+4748640D01*
X-2518250Y+4809600D02*
X-2486500Y+4840080D01*
X-2486500Y+4748640D01*
X-2931160Y+2976880D02*
X-2931160Y+3616960D01*
X-3279140Y+3616960D01*
X-3279140Y+2976880D01*
X-2933700Y+2976880D01*
X-3279140Y+3111500D02*
X-3299460Y+3111500D01*
X-3299460Y+3489960D01*
X-3281680Y+3489960D01*
X-3235960Y+2936240D02*
X-3235960Y+2860040D01*
X-3220085Y+2844800D01*
X-3156585Y+2844800D01*
X-3140710Y+2860040D01*
X-3140710Y+2936240D01*
X-3093085Y+2921000D02*
X-3077210Y+2936240D01*
X-3029585Y+2936240D01*
X-3013710Y+2921000D01*
X-3013710Y+2905760D01*
X-3029585Y+2890520D01*
X-3013710Y+2875280D01*
X-3013710Y+2860040D01*
X-3029585Y+2844800D01*
X-3077210Y+2844800D01*
X-3093085Y+2860040D01*
X-3061335Y+2890520D02*
X-3029585Y+2890520D01*
X-2540000Y+3124200D02*
X-2540000Y+3284220D01*
X-2286000Y+3124200D02*
X-2286000Y+3284220D01*
X-2595880Y+3173730D02*
X-2580640Y+3157855D01*
X-2580640Y+3110230D01*
X-2611120Y+3078480D01*
X-2641600Y+3078480D01*
X-2672080Y+3110230D01*
X-2672080Y+3157855D01*
X-2656840Y+3173730D01*
X-2656840Y+3221355D02*
X-2672080Y+3237230D01*
X-2672080Y+3284855D01*
X-2656840Y+3300730D01*
X-2641600Y+3300730D01*
X-2626360Y+3284855D01*
X-2611120Y+3300730D01*
X-2595880Y+3300730D01*
X-2580640Y+3284855D01*
X-2580640Y+3237230D01*
X-2595880Y+3221355D01*
X-2626360Y+3253105D02*
X-2626360Y+3284855D01*
X-1905000Y+2534000D02*
X-305000Y+2534000D01*
X-305000Y+3944000D01*
X-1905000Y+3944000D01*
X-1905000Y+2534000D01*
X-305000Y+3934000D02*
X-305000Y+2534000D01*
X-1455170Y+3399880D02*
X-1471045Y+3384640D01*
X-1518670Y+3384640D01*
X-1550420Y+3415120D01*
X-1550420Y+3445600D01*
X-1518670Y+3476080D01*
X-1471045Y+3476080D01*
X-1455170Y+3460840D01*
X-1328170Y+3399880D02*
X-1344045Y+3384640D01*
X-1391670Y+3384640D01*
X-1423420Y+3415120D01*
X-1423420Y+3445600D01*
X-1391670Y+3476080D01*
X-1344045Y+3476080D01*
X-1328170Y+3460840D01*
X-1280545Y+3460840D02*
X-1264670Y+3476080D01*
X-1217045Y+3476080D01*
X-1201170Y+3460840D01*
X-1201170Y+3445600D01*
X-1217045Y+3430360D01*
X-1264670Y+3430360D01*
X-1280545Y+3415120D01*
X-1280545Y+3384640D01*
X-1201170Y+3384640D01*
X-1074170Y+3476080D02*
X-1153545Y+3476080D01*
X-1153545Y+3445600D01*
X-1090045Y+3445600D01*
X-1074170Y+3430360D01*
X-1074170Y+3399880D01*
X-1090045Y+3384640D01*
X-1137670Y+3384640D01*
X-1153545Y+3399880D01*
X-1026545Y+3460840D02*
X-1010670Y+3476080D01*
X-963045Y+3476080D01*
X-947170Y+3460840D01*
X-947170Y+3445600D01*
X-963045Y+3430360D01*
X-947170Y+3415120D01*
X-947170Y+3399880D01*
X-963045Y+3384640D01*
X-1010670Y+3384640D01*
X-1026545Y+3399880D01*
X-994795Y+3430360D02*
X-963045Y+3430360D01*
X-915420Y+3399880D02*
X-915420Y+3460840D01*
X-899545Y+3476080D01*
X-836045Y+3476080D01*
X-820170Y+3460840D01*
X-820170Y+3399880D01*
X-836045Y+3384640D01*
X-899545Y+3384640D01*
X-915420Y+3399880D01*
X-915420Y+3384640D02*
X-820170Y+3476080D01*
D72*
X-4122420Y+2186940D02*
X-4122420Y+2646940D01*
X-4122420Y+2186940D02*
X-3862420Y+2186940D01*
X-3862420Y+2646940D01*
X-4122420Y+2646940D01*
D29*
X-4118610Y+2155190D02*
X-4118610Y+2078990D01*
X-4102735Y+2063750D01*
X-4039235Y+2063750D01*
X-4023360Y+2078990D01*
X-4023360Y+2155190D01*
X-3975735Y+2139950D02*
X-3959860Y+2155190D01*
X-3912235Y+2155190D01*
X-3896360Y+2139950D01*
X-3896360Y+2124710D01*
X-3912235Y+2109470D01*
X-3959860Y+2109470D01*
X-3975735Y+2094230D01*
X-3975735Y+2063750D01*
X-3896360Y+2063750D01*
X-875500Y+4281640D02*
X-829780Y+4281640D01*
X-875500Y+4200360D02*
X-829780Y+4200360D01*
X-884390Y+4337520D02*
X-900265Y+4322280D01*
X-947890Y+4322280D01*
X-979640Y+4352760D01*
X-979640Y+4383240D01*
X-947890Y+4413720D01*
X-900265Y+4413720D01*
X-884390Y+4398480D01*
X-836765Y+4398480D02*
X-820890Y+4413720D01*
X-773265Y+4413720D01*
X-757390Y+4398480D01*
X-757390Y+4383240D01*
X-773265Y+4368000D01*
X-820890Y+4368000D01*
X-836765Y+4352760D01*
X-836765Y+4322280D01*
X-757390Y+4322280D01*
X-4244937Y+1951248D02*
X-4337282Y+1697531D01*
X-3848642Y+1519681D01*
X-3756297Y+1773398D01*
X-4244937Y+1951248D01*
X-4141571Y+1913626D02*
X-4230496Y+1669306D01*
X-4183512Y+1652205D01*
X-4094586Y+1896525D01*
X-4141571Y+1913626D01*
X-4302217Y+1823111D02*
X-4452568Y+1877834D01*
X-3804180Y+1641840D02*
X-3653829Y+1587117D01*
X-4271591Y+1420305D02*
X-4271591Y+1511745D01*
X-4208091Y+1511745D01*
X-4176341Y+1481265D01*
X-4176341Y+1450785D01*
X-4208091Y+1420305D01*
X-4271591Y+1420305D01*
X-4128716Y+1496505D02*
X-4112841Y+1511745D01*
X-4065216Y+1511745D01*
X-4049341Y+1496505D01*
X-4049341Y+1481265D01*
X-4065216Y+1466025D01*
X-4112841Y+1466025D01*
X-4128716Y+1450785D01*
X-4128716Y+1420305D01*
X-4049341Y+1420305D01*
X-3296300Y+1520900D02*
X-2096300Y+1520900D01*
X-2096300Y+2720900D01*
X-3296300Y+2720900D01*
X-3296300Y+1520900D01*
X-2196300Y+2120900D02*
X-2197831Y+2160000D01*
X-2210254Y+2238201D01*
X-2236106Y+2316402D01*
X-2277866Y+2394603D01*
X-2341105Y+2472804D01*
X-2419298Y+2537157D01*
X-2497499Y+2579679D01*
X-2575700Y+2606138D01*
X-2653901Y+2619099D01*
X-2696300Y+2620900D01*
X-3196300Y+2120900D02*
X-3194769Y+2160000D01*
X-3182346Y+2238201D01*
X-3156494Y+2316402D01*
X-3114734Y+2394603D01*
X-3051495Y+2472804D01*
X-2973302Y+2537157D01*
X-2895101Y+2579679D01*
X-2816900Y+2606138D01*
X-2738699Y+2619099D01*
X-2696300Y+2620900D01*
X-3196300Y+2120900D02*
X-3194769Y+2081800D01*
X-3182346Y+2003599D01*
X-3156494Y+1925398D01*
X-3114734Y+1847197D01*
X-3051495Y+1768996D01*
X-2973302Y+1704643D01*
X-2895101Y+1662121D01*
X-2816900Y+1635662D01*
X-2738699Y+1622701D01*
X-2696300Y+1620900D01*
X-2196300Y+2120900D02*
X-2197831Y+2081800D01*
X-2210254Y+2003599D01*
X-2236106Y+1925398D01*
X-2277866Y+1847197D01*
X-2341105Y+1768996D01*
X-2419298Y+1704643D01*
X-2497499Y+1662121D01*
X-2575700Y+1635662D01*
X-2653901Y+1622701D01*
X-2696300Y+1620900D01*
X-2266184Y+2120900D02*
X-2267524Y+2154827D01*
X-2278400Y+2222682D01*
X-2301049Y+2290537D01*
X-2337695Y+2358392D01*
X-2393371Y+2426242D01*
X-2461226Y+2481094D01*
X-2529081Y+2517180D01*
X-2596936Y+2539381D01*
X-2664791Y+2549860D01*
X-2696300Y+2551016D01*
X-3126416Y+2120900D02*
X-3125076Y+2154827D01*
X-3114200Y+2222682D01*
X-3091551Y+2290537D01*
X-3054905Y+2358392D01*
X-2999229Y+2426242D01*
X-2931374Y+2481094D01*
X-2863519Y+2517180D01*
X-2795664Y+2539381D01*
X-2727809Y+2549860D01*
X-2696300Y+2551016D01*
X-3126416Y+2120900D02*
X-3125076Y+2086973D01*
X-3114200Y+2019118D01*
X-3091551Y+1951263D01*
X-3054905Y+1883408D01*
X-2999229Y+1815558D01*
X-2931374Y+1760706D01*
X-2863519Y+1724620D01*
X-2795664Y+1702419D01*
X-2727809Y+1691940D01*
X-2696300Y+1690784D01*
X-2266184Y+2120900D02*
X-2267524Y+2086973D01*
X-2278400Y+2019118D01*
X-2301049Y+1951263D01*
X-2337695Y+1883408D01*
X-2393371Y+1815558D01*
X-2461226Y+1760706D01*
X-2529081Y+1724620D01*
X-2596936Y+1702419D01*
X-2664791Y+1691940D01*
X-2696300Y+1690784D01*
X-2823300Y+2852980D02*
X-2823300Y+2761540D01*
X-2728050Y+2761540D01*
X-2680425Y+2837740D02*
X-2664550Y+2852980D01*
X-2616925Y+2852980D01*
X-2601050Y+2837740D01*
X-2601050Y+2822500D01*
X-2616925Y+2807260D01*
X-2664550Y+2807260D01*
X-2680425Y+2792020D01*
X-2680425Y+2761540D01*
X-2601050Y+2761540D01*
X-4602340Y+2217420D02*
X-4533760Y+2217420D01*
X-4602340Y+2095500D02*
X-4531220Y+2095500D01*
X-4996320Y+2108060D02*
X-4996320Y+2199500D01*
X-4916945Y+2199500D01*
X-4901070Y+2184260D01*
X-4901070Y+2169020D01*
X-4916945Y+2153780D01*
X-4996320Y+2153780D01*
X-4916945Y+2153780D02*
X-4901070Y+2138540D01*
X-4901070Y+2108060D01*
X-4837570Y+2169020D02*
X-4805820Y+2199500D01*
X-4805820Y+2108060D01*
X-4602340Y+2471420D02*
X-4533760Y+2471420D01*
X-4602340Y+2349500D02*
X-4531220Y+2349500D01*
X-4994560Y+2362060D02*
X-4994560Y+2453500D01*
X-4915185Y+2453500D01*
X-4899310Y+2438260D01*
X-4899310Y+2423020D01*
X-4915185Y+2407780D01*
X-4994560Y+2407780D01*
X-4915185Y+2407780D02*
X-4899310Y+2392540D01*
X-4899310Y+2362060D01*
X-4851685Y+2438260D02*
X-4835810Y+2453500D01*
X-4788185Y+2453500D01*
X-4772310Y+2438260D01*
X-4772310Y+2423020D01*
X-4788185Y+2407780D01*
X-4835810Y+2407780D01*
X-4851685Y+2392540D01*
X-4851685Y+2362060D01*
X-4772310Y+2362060D01*
X-4602340Y+2725420D02*
X-4533760Y+2725420D01*
X-4602340Y+2603500D02*
X-4531220Y+2603500D01*
X-4696320Y+2766060D02*
X-4696320Y+2857500D01*
X-4616945Y+2857500D01*
X-4601070Y+2842260D01*
X-4601070Y+2827020D01*
X-4616945Y+2811780D01*
X-4696320Y+2811780D01*
X-4616945Y+2811780D02*
X-4601070Y+2796540D01*
X-4601070Y+2766060D01*
X-4553445Y+2842260D02*
X-4537570Y+2857500D01*
X-4489945Y+2857500D01*
X-4474070Y+2842260D01*
X-4474070Y+2827020D01*
X-4489945Y+2811780D01*
X-4474070Y+2796540D01*
X-4474070Y+2781300D01*
X-4489945Y+2766060D01*
X-4537570Y+2766060D01*
X-4553445Y+2781300D01*
X-4521695Y+2811780D02*
X-4489945Y+2811780D01*
X-1741640Y+2122500D02*
X-1741640Y+2168220D01*
X-1660360Y+2122500D02*
X-1660360Y+2168220D01*
X-1782280Y+2018360D02*
X-1873720Y+2018360D01*
X-1873720Y+2097735D01*
X-1858480Y+2113610D01*
X-1843240Y+2113610D01*
X-1828000Y+2097735D01*
X-1828000Y+2018360D01*
X-1828000Y+2097735D02*
X-1812760Y+2113610D01*
X-1782280Y+2113610D01*
X-1812760Y+2240610D02*
X-1812760Y+2145360D01*
X-1873720Y+2208860D01*
X-1782280Y+2208860D01*
X-4460500Y+4314220D02*
X-4391920Y+4314220D01*
X-4460500Y+4192300D02*
X-4389380Y+4192300D01*
X-4554480Y+4054860D02*
X-4554480Y+4146300D01*
X-4475105Y+4146300D01*
X-4459230Y+4131060D01*
X-4459230Y+4115820D01*
X-4475105Y+4100580D01*
X-4554480Y+4100580D01*
X-4475105Y+4100580D02*
X-4459230Y+4085340D01*
X-4459230Y+4054860D01*
X-4332230Y+4131060D02*
X-4348105Y+4146300D01*
X-4395730Y+4146300D01*
X-4411605Y+4131060D01*
X-4411605Y+4070100D01*
X-4395730Y+4054860D01*
X-4348105Y+4054860D01*
X-4332230Y+4070100D01*
X-4332230Y+4085340D01*
X-4348105Y+4100580D01*
X-4411605Y+4100580D01*
X-1406360Y+2168220D02*
X-1406360Y+2122500D01*
X-1487640Y+2168220D02*
X-1487640Y+2122500D01*
X-1524280Y+2018360D02*
X-1615720Y+2018360D01*
X-1615720Y+2097735D01*
X-1600480Y+2113610D01*
X-1585240Y+2113610D01*
X-1570000Y+2097735D01*
X-1570000Y+2018360D01*
X-1570000Y+2097735D02*
X-1554760Y+2113610D01*
X-1524280Y+2113610D01*
X-1615720Y+2240610D02*
X-1615720Y+2161235D01*
X-1585240Y+2161235D01*
X-1585240Y+2224735D01*
X-1570000Y+2240610D01*
X-1539520Y+2240610D01*
X-1524280Y+2224735D01*
X-1524280Y+2177110D01*
X-1539520Y+2161235D01*
X-1704360Y+1602500D02*
X-1704360Y+1556780D01*
X-1785640Y+1602500D02*
X-1785640Y+1556780D01*
X-1872280Y+1402640D02*
X-1963720Y+1402640D01*
X-1963720Y+1466140D01*
X-1933240Y+1497890D01*
X-1902760Y+1497890D01*
X-1872280Y+1466140D01*
X-1872280Y+1402640D01*
X-1948480Y+1545515D02*
X-1963720Y+1561390D01*
X-1963720Y+1609015D01*
X-1948480Y+1624890D01*
X-1933240Y+1624890D01*
X-1918000Y+1609015D01*
X-1902760Y+1624890D01*
X-1887520Y+1624890D01*
X-1872280Y+1609015D01*
X-1872280Y+1561390D01*
X-1887520Y+1545515D01*
X-1918000Y+1577265D02*
X-1918000Y+1609015D01*
X-1450360Y+1602500D02*
X-1450360Y+1556780D01*
X-1531640Y+1602500D02*
X-1531640Y+1556780D01*
X-1568280Y+1452640D02*
X-1659720Y+1452640D01*
X-1659720Y+1516140D01*
X-1629240Y+1547890D01*
X-1598760Y+1547890D01*
X-1568280Y+1516140D01*
X-1568280Y+1452640D01*
X-1598760Y+1674890D02*
X-1598760Y+1579640D01*
X-1659720Y+1643140D01*
X-1568280Y+1643140D01*
X-4400980Y+4553560D02*
X-4446700Y+4553560D01*
X-4400980Y+4634840D02*
X-4446700Y+4634840D01*
X-4563540Y+4421480D02*
X-4563540Y+4512920D01*
X-4500040Y+4512920D01*
X-4468290Y+4482440D01*
X-4468290Y+4451960D01*
X-4500040Y+4421480D01*
X-4563540Y+4421480D01*
X-4341290Y+4512920D02*
X-4420665Y+4512920D01*
X-4420665Y+4482440D01*
X-4357165Y+4482440D01*
X-4341290Y+4467200D01*
X-4341290Y+4436720D01*
X-4357165Y+4421480D01*
X-4404790Y+4421480D01*
X-4420665Y+4436720D01*
X-1387400Y+4950600D02*
X-1387400Y+4747400D01*
X-2098600Y+4747400D01*
X-2098600Y+4950600D01*
X-1387400Y+4950600D01*
X-2018540Y+4533429D02*
X-2018540Y+4624869D01*
X-1955040Y+4624869D01*
X-1923290Y+4594389D01*
X-1923290Y+4563909D01*
X-1955040Y+4533429D01*
X-2018540Y+4533429D01*
X-1796290Y+4533429D02*
X-1891540Y+4533429D01*
X-1891540Y+4624869D01*
X-1796290Y+4624869D01*
X-1891540Y+4579149D02*
X-1828040Y+4579149D01*
X-1764540Y+4533429D02*
X-1764540Y+4624869D01*
X-1685165Y+4624869D01*
X-1669290Y+4609629D01*
X-1669290Y+4594389D01*
X-1685165Y+4579149D01*
X-1669290Y+4563909D01*
X-1669290Y+4548669D01*
X-1685165Y+4533429D01*
X-1764540Y+4533429D01*
X-1764540Y+4579149D02*
X-1685165Y+4579149D01*
X-1637540Y+4624869D02*
X-1637540Y+4548669D01*
X-1621665Y+4533429D01*
X-1558165Y+4533429D01*
X-1542290Y+4548669D01*
X-1542290Y+4624869D01*
X-1447040Y+4563909D02*
X-1415290Y+4563909D01*
X-1415290Y+4533429D01*
X-1478790Y+4533429D01*
X-1510540Y+4563909D01*
X-1510540Y+4594389D01*
X-1478790Y+4624869D01*
X-1431165Y+4624869D01*
X-1415290Y+4609629D01*
X-5750000Y+4150000D02*
X-4750000Y+4150000D01*
X-4750000Y+4950000D01*
X-5750000Y+4950000D01*
X-5750000Y+4150000D01*
X-5361125Y+5073191D02*
X-5297625Y+5073191D01*
X-5329375Y+5073191D02*
X-5329375Y+4996991D01*
X-5361125Y+4996991D02*
X-5297625Y+4996991D01*
X-5250000Y+4996991D02*
X-5250000Y+5073191D01*
X-5154750Y+4996991D01*
X-5154750Y+5073191D01*
X-5758000Y+1300000D02*
X-4758000Y+1300000D01*
X-4758000Y+2100000D01*
X-5758000Y+2100000D01*
X-5758000Y+1300000D01*
X-5498500Y+2228880D02*
X-5466750Y+2259360D01*
X-5435000Y+2259360D01*
X-5403250Y+2228880D01*
X-5403250Y+2198400D01*
X-5435000Y+2167920D01*
X-5466750Y+2167920D01*
X-5498500Y+2198400D01*
X-5498500Y+2228880D01*
X-5371500Y+2259360D02*
X-5371500Y+2183160D01*
X-5355625Y+2167920D01*
X-5292125Y+2167920D01*
X-5276250Y+2183160D01*
X-5276250Y+2259360D01*
X-5244500Y+2259360D02*
X-5149250Y+2259360D01*
X-5196875Y+2259360D02*
X-5196875Y+2167920D01*
X-5950000Y+4896000D02*
X-5797600Y+4896000D01*
X-5873800Y+4997600D02*
X-5873800Y+4794400D01*
X-4548400Y+4821400D02*
X-4497600Y+4821400D01*
X-4497600Y+4745200D01*
X-4599200Y+4745200D01*
X-4650000Y+4821400D01*
X-4650000Y+4897600D01*
X-4599200Y+4973800D01*
X-4523000Y+4973800D01*
X-4497600Y+4935700D01*
X-4446800Y+4745200D02*
X-4446800Y+4973800D01*
X-4294400Y+4745200D01*
X-4294400Y+4973800D01*
X-4243600Y+4745200D02*
X-4243600Y+4973800D01*
X-4142000Y+4973800D01*
X-4091200Y+4897600D01*
X-4091200Y+4821400D01*
X-4142000Y+4745200D01*
X-4243600Y+4745200D01*
X-1354000Y+1392000D02*
X-719000Y+1392000D01*
X-719000Y+2408000D01*
X-1354000Y+2408000D01*
X-1354000Y+1392000D01*
X-846000Y+2408000D02*
X-846000Y+1392000D01*
X-1323140Y+1254280D02*
X-1323140Y+1345720D01*
X-1243765Y+1345720D01*
X-1227890Y+1330480D01*
X-1227890Y+1315240D01*
X-1243765Y+1300000D01*
X-1323140Y+1300000D01*
X-1180265Y+1345720D02*
X-1116765Y+1345720D01*
X-1148515Y+1345720D02*
X-1148515Y+1254280D01*
X-1180265Y+1254280D02*
X-1116765Y+1254280D01*
X-1069140Y+1254280D02*
X-1069140Y+1345720D01*
X-989765Y+1345720D01*
X-973890Y+1330480D01*
X-973890Y+1315240D01*
X-989765Y+1300000D01*
X-1069140Y+1300000D01*
X-989765Y+1300000D02*
X-973890Y+1284760D01*
X-973890Y+1254280D01*
X-4674600Y+1496000D02*
X-4547600Y+1496000D01*
X-5950000Y+1496000D02*
X-5797600Y+1496000D01*
X-5873800Y+1597600D02*
X-5873800Y+1394400D01*
M02*
